<svg width="18" height="18" viewBox="0 0 18 18" xmlns="http://www.w3.org/2000/svg" xmlns:xlink="http://www.w3.org/1999/xlink" id="fe62c4da-ab98-4bb3-a1a5-9a22b229614c" overflow="hidden"><defs><linearGradient x1="9" y1="16.795" x2="9" y2="1.205" gradientUnits="userSpaceOnUse" id="f36136e6-f568-4134-ab6f-c0fefbc04f83"><stop offset="0" stop-color="#5E9624"/><stop offset="0.321" stop-color="#639D26"/><stop offset="0.794" stop-color="#6FB12A"/><stop offset="0.999" stop-color="#76BC2D"/></linearGradient></defs><g><path d="M16.083 8.438C16.083 13.009 10.457 16.688 9.233 17.438 9.08982 17.5249 8.91017 17.5249 8.767 17.438 7.543 16.691 1.917 13.012 1.917 8.438L1.917 2.938C1.91807 2.6981 2.11112 2.50327 2.351 2.5 6.728 2.386 5.72 0.5 9 0.5 12.28 0.5 11.272 2.386 15.649 2.5 15.8877 2.50324 16.0803 2.69627 16.083 2.935Z" fill="#76BC2D"/><path d="M15.5 8.485C15.5 12.676 10.34 16.051 9.218 16.735 9.08652 16.8149 8.92148 16.8149 8.79 16.735 7.664 16.051 2.5 12.676 2.5 8.485L2.5 3.441C2.5 3.22009 2.67909 3.041 2.9 3.041 6.916 2.935 5.992 1.205 9 1.205 12.008 1.205 11.084 2.935 15.1 3.042 15.3209 3.042 15.5 3.22109 15.5 3.442Z" fill="url(#f36136e6-f568-4134-ab6f-c0fefbc04f83)"/><path d="M11.853 7.66 11.445 7.66 11.445 6.243C11.4485 5.57324 11.1984 4.92697 10.745 4.434 9.867 3.4722 8.37554 3.40426 7.41374 4.28226 7.36088 4.33051 7.31025 4.38114 7.262 4.434 6.80482 4.92421 6.55412 5.57174 6.562 6.242L6.562 7.66 6.147 7.66C5.96971 7.66103 5.82532 7.80276 5.821 7.98L5.821 11.662C5.82584 11.839 5.96992 11.9805 6.147 11.982L11.853 11.982C12.0301 11.9805 12.1742 11.839 12.179 11.662L12.179 7.98C12.1747 7.80276 12.0303 7.66103 11.853 7.66ZM10.304 7.66 7.7 7.66 7.7 6.219C7.70361 5.84842 7.85054 5.49362 8.11 5.229 8.55209 4.73526 9.31073 4.69339 9.80448 5.13548 9.83735 5.16491 9.86857 5.19613 9.898 5.229 9.95493 5.29091 10.0061 5.35785 10.051 5.429L10.051 5.429C10.2127 5.66167 10.3024 5.93674 10.309 6.22Z" fill="#FFFFFF"/><path d="M6.148 7.658 11.853 7.658C11.9302 7.65911 12.0046 7.68744 12.063 7.738L5.938 11.9C5.86523 11.8411 5.82267 11.7526 5.822 11.659L5.822 7.979C5.82579 7.80136 5.97033 7.65904 6.148 7.658Z" fill="#B3B3B3" opacity="0.15"/><path d="M11.853 7.658 6.147 7.658C6.07011 7.65934 5.99613 7.68766 5.938 7.738L12.062 11.9C12.135 11.8412 12.1779 11.7528 12.179 11.659L12.179 7.979C12.1747 7.80159 12.0305 7.65957 11.853 7.658Z" fill="#A3A3A3" opacity="0.09"/></g></svg>