<svg width="18" height="18" viewBox="0 0 18 18" xmlns="http://www.w3.org/2000/svg" xmlns:xlink="http://www.w3.org/1999/xlink" overflow="hidden"><defs><linearGradient x1="3.875" y1="2.197" x2="8.777" y2="2.197" gradientUnits="userSpaceOnUse" id="aaf476de-04bc-4af8-98cc-e67929dccd20"><stop offset="0" stop-color="#B77AF4"/><stop offset="1" stop-color="#773ADC"/></linearGradient><linearGradient x1="9.171" y1="2.24" x2="14.064" y2="2.24" gradientUnits="userSpaceOnUse" id="e2e768ca-2bc9-4c3d-bc33-6349d8f4731f"><stop offset="0" stop-color="#B77AF4"/><stop offset="1" stop-color="#773ADC"/></linearGradient><linearGradient x1="1.368" y1="6.8" x2="6.27" y2="6.8" gradientUnits="userSpaceOnUse" id="e88f099b-e35f-4e7e-a2c4-1e9fb9b22f53"><stop offset="0" stop-color="#B77AF4"/><stop offset="1" stop-color="#773ADC"/></linearGradient><linearGradient x1="6.647" y1="6.77" x2="11.54" y2="6.77" gradientUnits="userSpaceOnUse" id="b2b9a9f5-c49e-4bc8-976b-c01464f17c56"><stop offset="0" stop-color="#B77AF4"/><stop offset="1" stop-color="#773ADC"/></linearGradient><linearGradient x1="11.925" y1="6.808" x2="16.828" y2="6.808" gradientUnits="userSpaceOnUse" id="e01d8424-0958-4929-b1f6-dbe2af45d956"><stop offset="0" stop-color="#B77AF4"/><stop offset="1" stop-color="#773ADC"/></linearGradient><linearGradient x1="3.815" y1="11.454" x2="8.717" y2="11.454" gradientUnits="userSpaceOnUse" id="aa78596d-0840-4d8e-a3f2-11a5bc47f254"><stop offset="0" stop-color="#B77AF4"/><stop offset="1" stop-color="#773ADC"/></linearGradient><linearGradient x1="9.102" y1="11.488" x2="14.004" y2="11.488" gradientUnits="userSpaceOnUse" id="e6e3eec0-8e51-48fe-a516-00fa6f1954af"><stop offset="0" stop-color="#B77AF4"/><stop offset="1" stop-color="#773ADC"/></linearGradient></defs><g id="bf1543c9-de56-4176-b371-2d59f0335c50"><path d="M17.947 15.105C17.78 15.838 16.864 16.561 15.209 17.123 11.0675 18.3408 6.66391 18.3471 2.519 17.141 0.994 16.6 0.171 15.917 0.042 15.213 0.02 15.089 0.042 13.155 0.042 13.155L17.977 12.989C17.977 12.989 17.968 15.015 17.947 15.105Z" fill="#5EA0EF"/><ellipse cx="9.001" cy="13.115" rx="8.976" ry="3.103" fill="#50E6FF" transform="matrix(0.99995 -0.0100355 0.0100355 0.99995 -0.131 0.091)"/><path d="M6.322 0.041 3.875 0.494 3.875 3.831 6.322 4.353 8.777 3.369 8.777 0.879 6.322 0.041Z" fill="url(#aaf476de-04bc-4af8-98cc-e67929dccd20)"/><path d="M6.416 4.3 8.657 3.4C8.70752 3.37818 8.74465 3.33363 8.757 3.28L8.757 1.016C8.75259 0.948523 8.71094 0.889129 8.649 0.862L6.382 0.092 6.282 0.092 4.055 0.5C3.98302 0.51772 3.93083 0.580033 3.926 0.654L3.926 3.674C3.92468 3.75213 3.97866 3.82034 4.055 3.837L6.305 4.307C6.34207 4.31267 6.37993 4.31028 6.416 4.3Z" fill="none"/><path d="M11.617 0.084 9.171 0.537 9.171 3.874 11.617 4.396 14.064 3.403 14.064 0.922 11.617 0.084Z" fill="url(#e2e768ca-2bc9-4c3d-bc33-6349d8f4731f)"/><path d="M3.815 4.644 1.368 5.097 1.368 8.434 3.815 8.956 6.27 7.972 6.27 5.482 3.815 4.644Z" fill="url(#e88f099b-e35f-4e7e-a2c4-1e9fb9b22f53)"/><path d="M9.094 4.609 6.647 5.063 6.647 8.399 9.094 8.93 11.54 7.937 11.54 5.448 9.094 4.609Z" fill="url(#b2b9a9f5-c49e-4bc8-976b-c01464f17c56)"/><path d="M14.372 4.652 11.925 5.106 11.925 8.442 14.372 8.964 16.828 7.98 16.828 5.491 14.372 4.652Z" fill="url(#e01d8424-0958-4929-b1f6-dbe2af45d956)"/><path d="M6.262 9.298 3.815 9.743 3.815 13.079 6.262 13.61 8.717 12.617 8.717 10.136 6.262 9.298Z" fill="url(#aa78596d-0840-4d8e-a3f2-11a5bc47f254)"/><path d="M6.356 13.541 8.589 12.686C8.65221 12.6618 8.69261 12.5996 8.689 12.532L8.689 10.307C8.7019 10.2255 8.65479 10.1464 8.577 10.119L6.319 9.349C6.28662 9.33772 6.25138 9.33772 6.219 9.349L4 9.751C3.92025 9.76388 3.86197 9.83323 3.863 9.914L3.863 12.942C3.86119 13.02 3.91484 13.0883 3.991 13.105L6.241 13.541C6.2784 13.5529 6.3186 13.5529 6.356 13.541Z" fill="none"/><path d="M11.549 9.332 9.102 9.785 9.102 13.122 11.549 13.644 14.004 12.66 14.004 10.17 11.549 9.332Z" fill="url(#e6e3eec0-8e51-48fe-a516-00fa6f1954af)"/><path d="M3.875 0.494 3.875 3.831 6.347 4.353 6.347 0.075ZM4.919 3.574 4.226 3.437 4.226 0.871 4.919 0.76ZM6 3.771 5.2 3.643 5.2 0.708 6 0.571ZM9.171 0.537 9.171 3.874 11.626 4.396 11.626 0.118ZM10.206 3.617 9.513 3.48 9.513 0.914 10.206 0.8ZM11.284 3.817 10.484 3.689 10.484 0.751 11.284 0.606ZM1.36 5.1 1.36 8.408 3.832 8.93 3.832 4.652ZM2.4 8.186 1.7 8.04 1.7 5.474 2.393 5.354ZM3.486 8.408 2.686 8.28 2.686 5.311 3.486 5.174ZM6.647 5.063 6.647 8.408 9.111 8.93 9.111 4.652ZM7.682 8.151 6.989 8.006 6.989 5.439 7.682 5.32ZM8.76 8.34 7.96 8.211 7.96 5.277 8.76 5.14ZM11.925 5.106 11.925 8.406 14.4 8.93 14.4 4.652ZM12.969 8.194 12.276 8.049 12.276 5.482 12.969 5.362ZM14.047 8.382 13.252 8.254 13.252 5.32 14.052 5.183ZM3.815 9.743 3.815 13.079 6.288 13.61 6.288 9.264ZM4.859 12.831 4.166 12.686 4.166 10.119 4.859 10ZM5.937 13.031 5.137 12.903 5.137 9.957 5.937 9.82ZM9.1 9.785 9.1 13.122 11.573 13.644 11.573 9.366ZM10.144 12.874 9.451 12.728 9.451 10.162 10.144 10.042ZM11.222 13.062 10.422 12.934 10.422 10 11.222 9.863Z" fill="#341A6E"/></g></svg>