<svg width="18" height="18" viewBox="0 0 18 18" xmlns="http://www.w3.org/2000/svg" xmlns:xlink="http://www.w3.org/1999/xlink" overflow="hidden"><defs><linearGradient x1="9" y1="15.427" x2="9" y2="5.973" gradientUnits="userSpaceOnUse" id="a005d9e9-7e29-4ef4-b995-a79dce2e9bf8"><stop offset="0" stop-color="#32BEDD"/><stop offset="0.175" stop-color="#32CAEA"/><stop offset="0.41" stop-color="#32D2F2"/><stop offset="0.775" stop-color="#32D4F5"/></linearGradient></defs><g id="f12b48ce-114c-4425-96be-0112b3f7d9c3"><g><path d="M1 5.973 17 5.973 17 5.973 17 14.893C17 15.1885 16.7605 15.428 16.465 15.428L1.535 15.428C1.23953 15.428 1 15.1885 1 14.893L1 5.973 1 5.973Z" fill="url(#a005d9e9-7e29-4ef4-b995-a79dce2e9bf8)"/><path d="M1.538 2.563 16.462 2.563C16.7575 2.56134 16.9983 2.79952 17 3.09499 17 3.09666 17 3.09833 17 3.1L17 5.973 17 5.973 1 5.973 1 5.973 1 3.1C0.998891 2.80453 1.23752 2.5641 1.53299 2.563 1.53466 2.56299 1.53633 2.56299 1.538 2.563Z" fill="#198AB3"/><path d="M1 5.973 5.194 5.973 5.194 5.973 5.194 15.428 5.194 15.428 1.536 15.428C1.24219 15.4302 1.00222 15.1938 1.00001 14.9 1 14.8983 0.999997 14.8967 1 14.895L1 5.973 1 5.973Z" fill="#9CEBFF"/><path d="M5.194 13.356 17 13.356 17 13.356 17 14.9C17 15.1938 16.7618 15.432 16.468 15.432L5.194 15.432 5.194 15.432 5.194 13.356 5.194 13.356Z" fill="#32BEDD"/></g></g></svg>