<svg width="18" height="18" viewBox="0 0 18 18" xmlns="http://www.w3.org/2000/svg" xmlns:xlink="http://www.w3.org/1999/xlink" overflow="hidden"><defs><radialGradient cx="9" cy="9" r="8.5" gradientUnits="userSpaceOnUse" id="e9a2b8bf-efad-4e15-89f0-635373400131"><stop offset="0" stop-color="#198AB3"/><stop offset="0.382" stop-color="#1A8CB5"/><stop offset="0.576" stop-color="#1C94BC"/><stop offset="0.727" stop-color="#21A1C8"/><stop offset="0.856" stop-color="#27B4D8"/><stop offset="0.97" stop-color="#2FCCEE"/><stop offset="1" stop-color="#32D4F5"/></radialGradient></defs><g id="faeec9e4-44b9-413a-8332-867d334dcda2"><g><circle cx="9" cy="9" r="8.5" fill="url(#e9a2b8bf-efad-4e15-89f0-635373400131)"/><circle cx="9" cy="9" r="7.321" fill="#005BA1"/></g><g><path d="M9.1 9.937 6.266 7.125C6.06895 6.93228 5.75405 6.93228 5.557 7.125L5.2 7.48C5.10865 7.56832 5.05705 7.68993 5.057 7.817 5.05677 7.94431 5.10756 8.0664 5.198 8.156L7.33 10.278 5.152 12.441C4.96533 12.6237 4.96214 12.9232 5.14489 13.1099 5.14723 13.1123 5.1496 13.1147 5.152 13.117L5.513 13.472C5.71005 13.6647 6.02495 13.6647 6.222 13.472L9.1 10.612C9.19029 10.5227 9.24107 10.401 9.241 10.274 9.24159 10.1472 9.19071 10.0256 9.1 9.937Z" fill="#F2F2F2"/><path d="M8.755 7.678C8.75493 7.80498 8.80571 7.92671 8.896 8.016L11.776 10.875C11.973 11.0677 12.288 11.0677 12.485 10.875L12.846 10.519C12.9374 10.4307 12.989 10.3091 12.989 10.182 12.9891 10.055 12.9383 9.93329 12.848 9.844L10.674 7.682 12.806 5.559C12.8963 5.46971 12.9471 5.34798 12.947 5.221 12.947 5.09393 12.8954 4.97232 12.804 4.884L12.443 4.528C12.246 4.33528 11.931 4.33528 11.734 4.528L8.9 7.34C8.80795 7.42843 8.75564 7.55036 8.755 7.678Z" fill="#F2F2F2"/></g></g></svg>