<svg width="18" height="18" viewBox="0 0 18 18" xmlns="http://www.w3.org/2000/svg" xmlns:xlink="http://www.w3.org/1999/xlink" id="a685cc8c-32ba-4d54-91da-3a125cb58ded" overflow="hidden"><g><g><path d="M0.5 15.08C0.499484 15.1377 0.530049 15.1912 0.58 15.22L1.74 15.87 3.7 17C3.78023 17.0458 3.88238 17.0192 3.93 16.94L4.59 15.82C4.62831 15.7451 4.60209 15.6533 4.53 15.61L2.23 14.31C2.18149 14.2798 2.15143 14.2271 2.15 14.17L2.15 3.85C2.14948 3.79233 2.18005 3.73884 2.23 3.71L4.53 2.41C4.60209 2.36666 4.62831 2.27489 4.59 2.2L3.93 1.08C3.89021 0.994962 3.78901 0.958284 3.70397 0.998078 3.70264 0.998702 3.70132 0.999342 3.7 1L1.78 2.11 0.58 2.78C0.530049 2.80884 0.499484 2.86233 0.5 2.92L0.5 15.08Z" fill="#949494"/><path d="M2.14 3.77 2.2 3.71 4.5 2.41C4.57128 2.38005 4.60478 2.29798 4.57483 2.2267 4.57088 2.21728 4.5659 2.20833 4.56 2.2L3.9 1.08C3.8734 1.00154 3.78824 0.959504 3.70978 0.986102 3.69938 0.98963 3.68939 0.994291 3.68 1L1.75 2.11 0.56 2.78C0.56 2.78 0.51 2.78 0.5 2.84L1.4 3.35Z" fill="#A3A3A3"/><path d="M4.5 15.59 2.2 14.29C2.16916 14.2667 2.14502 14.2356 2.13 14.2L0.51 15.2 0.56 15.2 1.71 15.85 3.71 16.96C3.7785 17.0066 3.8718 16.9888 3.91839 16.9203 3.92278 16.9139 3.92666 16.9071 3.93 16.9L4.59 15.78C4.62061 15.709 4.58786 15.6266 4.51685 15.596 4.51137 15.5937 4.50574 15.5916 4.5 15.59Z" fill="#A3A3A3"/></g><path d="M17.5 15.08C17.5005 15.1377 17.47 15.1912 17.42 15.22L16.26 15.87 14.3 17C14.2198 17.0458 14.1176 17.0192 14.07 16.94L13.41 15.82C13.3717 15.7451 13.3979 15.6533 13.47 15.61L15.77 14.31C15.8185 14.2798 15.8486 14.2271 15.85 14.17L15.85 3.85C15.8505 3.79233 15.82 3.73884 15.77 3.71L13.47 2.41C13.3979 2.36666 13.3717 2.27489 13.41 2.2L14.07 1.08C14.1098 0.994962 14.211 0.958284 14.296 0.998078 14.2974 0.998702 14.2987 0.999342 14.3 1L16.22 2.09 17.42 2.76C17.47 2.78884 17.5005 2.84233 17.5 2.9L17.5 15.08Z" fill="#949494"/><path d="M15.86 3.77 15.8 3.71 13.5 2.41C13.4287 2.38005 13.3952 2.29798 13.4252 2.2267 13.4291 2.21728 13.4341 2.20833 13.44 2.2L14.1 1.08C14.1266 1.00154 14.2118 0.959504 14.2902 0.986102 14.3006 0.98963 14.3106 0.994291 14.32 1L16.25 2.09 17.44 2.76C17.44 2.76 17.44 2.76 17.5 2.82L16.6 3.33Z" fill="#A3A3A3"/><path d="M13.5 15.59 15.8 14.29C15.8308 14.2667 15.855 14.2356 15.87 14.2L17.49 15.2 17.49 15.2 16.34 15.85 14.34 16.96C14.2715 17.0066 14.1782 16.9888 14.1316 16.9203 14.1272 16.9139 14.1233 16.9071 14.12 16.9L13.46 15.78C13.4201 15.7162 13.4378 15.6323 13.5 15.59Z" fill="#A3A3A3"/><path d="M14.31 5.93 14.31 12.07 8.99 15.16 8.99 9.01 14.31 5.93Z" fill="#32BEDD"/><path d="M14.31 5.93 9 9.02 3.68 5.93 9 2.84 14.31 5.93Z" fill="#9CEBFF"/><path d="M8.99 9.02 8.99 15.16 3.68 12.07 3.68 5.93 8.99 9.02Z" fill="#50E6FF"/><path d="M3.68 12.07 8.99 9.01 8.99 15.16 3.68 12.07Z" fill="#9CEBFF"/><path d="M14.31 12.07 8.99 9.01 8.99 15.16 14.31 12.07Z" fill="#50E6FF"/></g></svg>