<svg width="18" height="18" viewBox="0 0 18 18" xmlns="http://www.w3.org/2000/svg" xmlns:xlink="http://www.w3.org/1999/xlink" id="e0c2a2f0-e647-4f01-b91b-afb7bf15040d" overflow="hidden"><defs><linearGradient x1="8.45" y1="11.47" x2="8.45" y2="6.24" gradientUnits="userSpaceOnUse" id="a7f731a9-5c58-44f4-8037-3c3627e98008"><stop offset="0" stop-color="#198AB3"/><stop offset="0.16" stop-color="#1F9AC2"/><stop offset="0.5" stop-color="#29BADE"/><stop offset="0.8" stop-color="#30CDEF"/><stop offset="1" stop-color="#32D4F5"/></linearGradient></defs><ellipse cx="8.45" cy="8.85" rx="2.6" ry="2.61" fill="url(#a7f731a9-5c58-44f4-8037-3c3627e98008)"/><ellipse cx="15.73" cy="4.77" rx="1.27" ry="1.28" fill="#32BEDD"/><ellipse cx="15.73" cy="8.95" rx="1.27" ry="1.28" fill="#32BEDD"/><ellipse cx="15.73" cy="13.12" rx="1.27" ry="1.28" fill="#32BEDD"/><ellipse cx="12.83" cy="6.91" rx="1.27" ry="1.28" fill="#50E6FF"/><ellipse cx="12.83" cy="11.09" rx="1.27" ry="1.28" fill="#50E6FF"/><path d="M2.41 5.58C2.43271 5.54612 2.46369 5.51859 2.5 5.5L8.32 2.11C8.4 2.11 13.32 4.89 13.32 4.89 13.4348 4.95628 13.5816 4.91696 13.6479 4.80217 13.6693 4.76505 13.6804 4.72286 13.68 4.68L13.68 3.59C13.6808 3.50349 13.6349 3.42325 13.56 3.38 13.56 3.38 8.4 0.46 8.33 0.5L1.11 4.64 1 4.72Z" fill="#949494"/><path d="M13.3 13.14 8.56 15.87C8.52356 15.8758 8.48644 15.8758 8.45 15.87L8.45 17.47C8.48595 17.4803 8.52405 17.4803 8.56 17.47L13.56 14.61C13.6319 14.5686 13.6773 14.4929 13.68 14.41L13.68 13.35C13.6885 13.2177 13.5882 13.1036 13.4559 13.0951 13.4003 13.0915 13.3452 13.1074 13.3 13.14Z" fill="#949494"/><path d="M8.45 15.9C8.40715 15.9092 8.36285 15.9092 8.32 15.9L2.5 12.47C2.42504 12.4318 2.37846 12.3541 2.38 12.27L2.38 5.7C2.371 5.66051 2.371 5.61949 2.38 5.58L1 4.72C0.989801 4.76273 0.989801 4.80727 1 4.85L1 13.12C0.997123 13.2045 1.03891 13.2843 1.11 13.33L8.33 17.47C8.36935 17.4802 8.41065 17.4802 8.45 17.47Z" fill="#B3B3B3"/></svg>