<svg width="18" height="18" viewBox="0 0 18 18" xmlns="http://www.w3.org/2000/svg" xmlns:xlink="http://www.w3.org/1999/xlink" id="e9f7ba73-56b8-4864-96ff-dce80bef729a" overflow="hidden"><defs><linearGradient x1="8.637" y1="-1.991" x2="8.637" y2="16.739" gradientUnits="userSpaceOnUse" id="bdf27dc6-025c-4805-8bfd-3a05defd3fbd"><stop offset="0" stop-color="#5EA0EF"/><stop offset="1" stop-color="#0078D4"/></linearGradient><linearGradient x1="12.96" y1="8.561" x2="12.96" y2="6.141" gradientUnits="userSpaceOnUse" id="fcd6c6c7-e2eb-4a32-b914-3a8485585a1b" gradientTransform="matrix(1 0 0 -1 0 20)"><stop offset="0" stop-color="#333132"/><stop offset="1" stop-color="#5B5A5C"/></linearGradient></defs><path d="M7.43 8.178 10.019 6.605 17.274 9.336C17.1156 8.63121 16.7524 7.98896 16.23 7.49L16.22 7.44C15.6102 6.85084 14.8362 6.46034 14 6.32 13.8863 3.61529 11.605 1.51286 8.9 1.62 6.75277 1.58115 4.81391 2.8991 4.06 4.91 1.78197 5.18799 0.0531238 7.09569-1.48773e-06 9.39 0.103005 11.9911 2.28842 14.0201 4.89 13.93L7.43 13.93Z" fill="url(#bdf27dc6-025c-4805-8bfd-3a05defd3fbd)"/><path d="M10.07 7.159 10.08 11.439 17.99 13.119 17.99 10.139 10.07 7.159Z" fill="#767676"/><path d="M10.07 7.159 7.93 8.459 7.93 12.439 10.08 11.439" fill="#999999"/><path d="M13.68 11.499 14.4 11.699 14.4 9.369 13.68 9.119 13.68 11.499Z" fill="#A3A3A3"/><path d="M12.96 8.889 12.24 8.629 12.24 11.119 12.96 11.319 12.96 8.889Z" fill="#A3A3A3"/><path d="M15.12 11.889 15.82 12.079 15.84 9.859 15.12 9.619 15.12 11.889Z" fill="#A3A3A3"/><path d="M10.81 10.749 11.53 10.929 11.53 8.399 10.81 8.159 10.81 10.749Z" fill="#A3A3A3"/><path d="M17.27 10.349 16.55 10.099 16.55 12.269 17.27 12.469 17.27 10.349Z" fill="#A3A3A3"/><path d="M8.66 11.369 8.3 11.579 8.3 8.749 8.66 8.559ZM9.37 8.149 9 8.389 9 11.139 9.37 10.939Z" id="ef0d1b54-a1e7-4cb9-a4e5-8a8518e7c127" fill="#B3B3B3"/><path d="M17.99 13.119 15.83 13.859 7.93 12.439 10.08 11.439 17.99 13.119Z" fill="url(#fcd6c6c7-e2eb-4a32-b914-3a8485585a1b)"/><path d="M17.99 16.169 10.04 17.679 10.08 12.089 17.99 13.559 17.99 16.169Z" fill="#767676"/><path d="M10.81 16.759 10.81 13.209 11.53 13.299 11.53 16.639 10.81 16.759Z" fill="#A3A3A3"/><path d="M12.96 16.399 12.24 16.529 12.24 13.389 12.96 13.499 12.96 16.399 12.96 16.399Z" fill="#A3A3A3"/><path d="M13.68 16.289 13.68 13.569 14.4 13.659 14.4 16.159 13.68 16.289Z" fill="#A3A3A3"/><path d="M15.83 15.909 15.12 16.039 15.12 13.749 15.83 13.859 15.83 15.909Z" fill="#A3A3A3"/><path d="M17.29 15.679 16.55 15.809 16.55 13.929 17.24 14.019 17.29 15.679Z" fill="#A3A3A3"/><path d="M7.93 16.4 7.93 13.14 10.09 12.14 10.09 17.74Z" id="b9f25eb4-4c88-45c2-bc4d-f992757d7e0e" fill="#999999"/><path d="M8.61 16.389 8.29 16.229 8.29 13.469 8.61 13.319ZM9.38 12.939 9 13.129 9 16.609 9.37 16.799 9.37 12.939Z" id="eb9200a7-4693-4427-bdae-b33ce90ff7f2" fill="#B3B3B3"/></svg>