<svg width="18" height="18" viewBox="0 0 18 18" xmlns="http://www.w3.org/2000/svg" xmlns:xlink="http://www.w3.org/1999/xlink" id="bc93169a-24c4-4686-9f37-c7e4f53b3d34" overflow="hidden"><defs><radialGradient cx="9" cy="9" r="8.5" gradientUnits="userSpaceOnUse" id="fb114c93-7c16-4540-899a-0796041629e6"><stop offset="0.18" stop-color="#5EA0EF"/><stop offset="0.56" stop-color="#5C9FEE"/><stop offset="0.69" stop-color="#559CED"/><stop offset="0.78" stop-color="#4A97E9"/><stop offset="0.86" stop-color="#3990E4"/><stop offset="0.93" stop-color="#2387DE"/><stop offset="0.99" stop-color="#087BD6"/><stop offset="1" stop-color="#0078D4"/></radialGradient><radialGradient cx="38.95" cy="182.07" r="9.88" gradientUnits="userSpaceOnUse" id="ec478bd3-5b38-4e7f-b661-11f355578bff" gradientTransform="matrix(0.94 0 0 0.94 -28.71 -163.24)"><stop offset="0.27" stop-color="#FFD70F"/><stop offset="0.49" stop-color="#FFCB12"/><stop offset="0.88" stop-color="#FEAC19"/><stop offset="1" stop-color="#FEA11B"/></radialGradient></defs><path d="M9 0.5C4.30558 0.5 0.5 4.30558 0.5 9 0.5 13.6944 4.30558 17.5 9 17.5 13.6944 17.5 17.5 13.6944 17.5 9 17.4945 4.30786 13.6921 0.50551 9 0.5ZM9 16.34C4.94623 16.34 1.66 13.0538 1.66 9 1.66 4.94623 4.94623 1.66 9 1.66 13.0538 1.66 16.34 4.94623 16.34 9 16.34 13.0538 13.0538 16.34 9 16.34Z" id="aacf8311-a317-400f-b613-74bd00da5ce3" fill="url(#fb114c93-7c16-4540-899a-0796041629e6)"/><circle cx="9" cy="9" r="7.34" fill="#FFFFFF"/><g><path d="M13.44 7.33C14.1505 6.61285 14.1505 5.45715 13.44 4.74L13.44 4.74 10.29 1.58C9.57627 0.870665 8.42373 0.870665 7.71 1.58L7.71 1.58 4.56 4.74C3.8495 5.45715 3.8495 6.61285 4.56 7.33L7.18 10C7.27572 10.0954 7.32967 10.2249 7.33 10.36L7.33 15.24C7.33024 15.4045 7.39484 15.5625 7.51 15.68L8.71 16.88C8.87007 17.0402 9.12967 17.0402 9.28983 16.8802 9.28988 16.8801 9.28994 16.8801 9.29 16.88L10.45 15.72 10.45 15.72 11.13 15.04C11.2189 14.9441 11.2189 14.7959 11.13 14.7L10.64 14.21C10.5422 14.106 10.5422 13.944 10.64 13.84L11.13 13.35C11.2189 13.2541 11.2189 13.1059 11.13 13.01L10.64 12.52C10.5422 12.416 10.5422 12.254 10.64 12.15L11.13 11.66C11.2189 11.5641 11.2189 11.4159 11.13 11.32L10.45 10.63 10.45 10.38ZM9 2.35C9.57161 2.35 10.035 2.81339 10.035 3.385 10.035 3.95661 9.57161 4.42 9 4.42 8.42839 4.42 7.965 3.95661 7.965 3.385 7.965 2.81339 8.42839 2.35 9 2.35Z" id="bd983c41-db73-40ec-a4f4-da1213fc9924" fill="url(#ec478bd3-5b38-4e7f-b661-11f355578bff)"/><path d="M8.18 15.3 8.18 15.3C8.27627 15.3829 8.4215 15.372 8.50436 15.2757 8.53932 15.2351 8.55899 15.1836 8.56 15.13L8.56 11.13C8.55941 11.049 8.51805 10.9738 8.45 10.93L8.45 10.93C8.34837 10.8634 8.212 10.8918 8.14541 10.9934 8.11893 11.0338 8.10649 11.0818 8.11 11.13L8.11 15.13C8.11353 15.1929 8.1382 15.2528 8.18 15.3Z" id="ad2e7e44-9bfd-4775-8bf4-8ef26a544921" fill="#FF9300" opacity="0.75"/><rect x="6.48" y="5.79" rx="0.28" width="5.17" height="0.61" id="a996fbff-3936-4b24-b407-369336c143ba" fill="#FF9300" opacity="0.75"/><rect x="6.48" y="6.78" rx="0.28" width="5.17" height="0.61" id="bb12d31c-3352-4a18-87dd-a169a4a8721d" fill="#FF9300" opacity="0.75"/></g></svg>