<svg xmlns="http://www.w3.org/2000/svg" viewBox="0 0 24 24" role="img" aria-label="GitHub">
  <title>GitHub</title>
  <path fill="#24292E" d="M12 .5C5.65.5.5 5.65.5 12c0 5.08 3.29 9.39 7.86 10.91.58.1.79-.25.79-.55 0-.27-.01-1.18-.02-2.13-3.2.7-3.88-1.36-3.88-1.36-.52-1.34-1.28-1.69-1.28-1.69-1.05-.71.08-.7.08-.7 1.16.08 1.77 1.19 1.77 1.19 1.03 1.77 2.71 1.26 3.37.96.1-.75.4-1.27.73-1.56-2.55-.29-5.24-1.28-5.24-5.68 0-1.26.45-2.28 1.18-3.09-.12-.29-.51-1.46.11-3.04 0 0 .97-.31 3.18 1.18.92-.26 1.91-.39 2.89-.39.98 0 1.97.13 2.89.39 2.2-1.49 3.17-1.18 3.17-1.18.63 1.58.23 2.75.11 3.04.74.81 1.18 1.83 1.18 3.09 0 4.41-2.69 5.39-5.26 5.67.41.36.78 1.06.78 2.14 0 1.55-.01 2.8-.01 3.18 0 .31.21.67.8.55C20.71 21.39 24 17.08 24 12 24 5.65 18.85.5 12 .5z"/>
</svg>
