<svg xmlns="http://www.w3.org/2000/svg" viewBox="0 0 24 24" fill="none">
  <path fill="#475569" d="M19.14 12.94a7.49 7.49 0 0 0 .05-.94 7.49 7.49 0 0 0-.05-.94l2.03-1.58a.5.5 0 0 0 .12-.64l-1.92-3.32a.5.5 0 0 0-.61-.22l-2.39.96a7.03 7.03 0 0 0-1.62-.94l-.36-2.54A.5.5 0 0 0 13.9 2h-3.84a.5.5 0 0 0-.5.42l-.36 2.54c-.59.24-1.13.55-1.62.94l-2.39-.96a.5.5 0 0 0-.61.22L2.66 8.48a.5.5 0 0 0 .12.64l2.03 1.58a7.61 7.61 0 0 0 0 1.88L2.78 14.2a.5.5 0 0 0-.12.64l1.92 3.32c.14.24.42.34.68.22l2.39-.96c.49.39 1.03.7 1.62.94l.36 2.54c.05.25.26.42.5.42h3.84c.25 0 .46-.17.5-.42l.36-2.54c.59-.24 1.13-.55 1.62-.94l2.39.96c.26.12.54.02.68-.22l1.92-3.32a.5.5 0 0 0-.12-.64l-2.05-1.58zM12 15.5A3.5 3.5 0 1 1 15.5 12 3.5 3.5 0 0 1 12 15.5z"/>
</svg>
